<svg xmlns="http://www.w3.org/2000/svg" viewBox="0 0 64 64" aria-label="Dasitrade">
  <defs>
    <clipPath id="dasitrade-favicon-disc">
      <circle cx="28" cy="22" r="17"/>
    </clipPath>
  </defs>
  <ellipse cx="37" cy="25" rx="25" ry="17" fill="none" stroke="#173d90" stroke-width="3.5" transform="rotate(18 37 25)"/>
  <circle cx="28" cy="22" r="17" fill="#e22a21"/>
  <g transform="rotate(-18 28 22)">
    <rect x="4" y="11" width="13" height="3.5" rx="1.75" fill="#173d90"/>
    <rect x="3" y="18" width="14" height="3.5" rx="1.75" fill="#173d90"/>
    <rect x="2" y="25" width="15" height="3.5" rx="1.75" fill="#173d90"/>
    <rect x="2" y="32" width="14" height="3.5" rx="1.75" fill="#173d90"/>
    <rect x="4" y="39" width="12" height="3.5" rx="1.75" fill="#173d90"/>
  </g>
  <g clip-path="url(#dasitrade-favicon-disc)" transform="rotate(-18 28 22)">
    <rect x="10" y="11" width="29" height="3.5" rx="1.75" fill="#ffffff"/>
    <rect x="10" y="18" width="32" height="3.5" rx="1.75" fill="#ffffff"/>
    <rect x="10" y="25" width="34" height="3.5" rx="1.75" fill="#ffffff"/>
    <rect x="10" y="32" width="32" height="3.5" rx="1.75" fill="#ffffff"/>
    <rect x="12" y="39" width="27" height="3.5" rx="1.75" fill="#ffffff"/>
  </g>
</svg>
